<svg width="31" height="31" viewBox="0 0 31 31" fill="none" xmlns="http://www.w3.org/2000/svg">
<path d="M15.5 0.5C17.4891 0.5 19.3968 1.29018 20.8033 2.6967C22.2098 4.10322 23 6.01088 23 8C23 9.98912 22.2098 11.8968 20.8033 13.3033C19.3968 14.7098 17.4891 15.5 15.5 15.5C13.5109 15.5 11.6032 14.7098 10.1967 13.3033C8.79018 11.8968 8 9.98912 8 8C8 6.01088 8.79018 4.10322 10.1967 2.6967C11.6032 1.29018 13.5109 0.5 15.5 0.5ZM15.5 19.25C23.7875 19.25 30.5 22.6063 30.5 26.75V30.5H0.5V26.75C0.5 22.6063 7.2125 19.25 15.5 19.25Z" fill="black" fill-opacity="0.4"/>
</svg>
