<svg width="16" height="17" viewBox="0 0 16 17" fill="none" xmlns="http://www.w3.org/2000/svg">
<path d="M16 15.7624C16 15.9981 15.9064 16.2242 15.7397 16.3909C15.573 16.5576 15.3469 16.6513 15.1111 16.6513H0.888889C0.653141 16.6513 0.427049 16.5576 0.26035 16.3909C0.0936507 16.2242 2.13965e-07 15.9981 2.13965e-07 15.7624V6.42017C-9.37633e-05 6.28472 0.0307708 6.15103 0.0902365 6.02933C0.149702 5.90762 0.236196 5.80112 0.343111 5.71795L7.45422 0.187283C7.61026 0.0659015 7.80231 0 8 0C8.19769 0 8.38974 0.0659015 8.54578 0.187283L15.6569 5.71795C15.7638 5.80112 15.8503 5.90762 15.9098 6.02933C15.9692 6.15103 16.0001 6.28472 16 6.42017V15.7624ZM14.2222 14.8735V6.85395L8 2.01484L1.77778 6.85395V14.8735H14.2222ZM3.55556 11.3179H12.4444V13.0957H3.55556V11.3179Z" fill="#9900CC"/>
</svg>
