<svg width="20" height="20" viewBox="0 0 20 20" fill="none" xmlns="http://www.w3.org/2000/svg">
<g clip-path="url(#clip0_2061_173)">
<path d="M18.8962 20.0001C19.5057 20.0001 20 19.5059 20 18.8962V1.10383C20 0.494141 19.5057 0 18.8962 0H1.10383C0.494062 0 0 0.494141 0 1.10383V18.8962C0 19.5059 0.494062 20.0001 1.10383 20.0001H18.8962Z" fill="#395185"/>
<path d="M13.7995 20.0001V12.255H16.3993L16.7885 9.23669H13.7995V7.3095C13.7995 6.4356 14.0423 5.84005 15.2955 5.84005L16.8938 5.83934V3.13974C16.6173 3.10294 15.6685 3.02075 14.5648 3.02075C12.2602 3.02075 10.6826 4.42739 10.6826 7.01067V9.23669H8.07617V12.255H10.6826V20.0001H13.7995Z" fill="white"/>
</g>
<defs>
<clipPath id="clip0_2061_173">
<rect width="20" height="20" fill="white"/>
</clipPath>
</defs>
</svg>
