<svg width="12" height="16" viewBox="0 0 12 16" fill="none" xmlns="http://www.w3.org/2000/svg">
<path d="M0.75 0H11.25C11.4489 0 11.6397 0.0790176 11.7803 0.21967C11.921 0.360322 12 0.551088 12 0.75V15.1073C12.0001 15.1743 11.9822 15.2402 11.9482 15.2979C11.9142 15.3557 11.8653 15.4033 11.8066 15.4358C11.7479 15.4683 11.6816 15.4844 11.6146 15.4826C11.5476 15.4807 11.4823 15.4609 11.4255 15.4252L6 12.0225L0.5745 15.4245C0.517776 15.4601 0.452541 15.4799 0.385576 15.4818C0.318612 15.4837 0.252365 15.4676 0.193721 15.4352C0.135078 15.4029 0.0861801 15.3554 0.0521121 15.2977C0.0180441 15.24 4.98531e-05 15.1742 0 15.1073V0.75C0 0.551088 0.0790178 0.360322 0.21967 0.21967C0.360322 0.0790176 0.551088 0 0.75 0ZM10.5 1.5H1.5V13.074L6 10.2533L10.5 13.074V1.5Z" fill="white"/>
</svg>
