<svg width="16" height="16" viewBox="0 0 16 16" fill="none" xmlns="http://www.w3.org/2000/svg">
<path d="M8 16C3.5816 16 0 12.4184 0 8C0 3.5816 3.5816 0 8 0C12.4184 0 16 3.5816 16 8C16 12.4184 12.4184 16 8 16ZM8 14.4C9.69739 14.4 11.3253 13.7257 12.5255 12.5255C13.7257 11.3253 14.4 9.69739 14.4 8C14.4 6.30261 13.7257 4.67475 12.5255 3.47452C11.3253 2.27428 9.69739 1.6 8 1.6C6.30261 1.6 4.67475 2.27428 3.47452 3.47452C2.27428 4.67475 1.6 6.30261 1.6 8C1.6 9.69739 2.27428 11.3253 3.47452 12.5255C4.67475 13.7257 6.30261 14.4 8 14.4V14.4ZM7.2 10.4H8.8V12H7.2V10.4ZM8.8 9.084V9.6H7.2V8.4C7.2 8.18783 7.28429 7.98434 7.43431 7.83431C7.58434 7.68429 7.78783 7.6 8 7.6C8.22726 7.59999 8.44985 7.53544 8.64186 7.41386C8.83387 7.29229 8.98741 7.11869 9.08462 6.91327C9.18182 6.70784 9.2187 6.47904 9.19095 6.25347C9.1632 6.02791 9.07196 5.81487 8.92787 5.63913C8.78377 5.46339 8.59273 5.33218 8.37698 5.26078C8.16122 5.18937 7.92963 5.18069 7.70914 5.23576C7.48865 5.29083 7.28833 5.40738 7.13149 5.57185C6.97465 5.73632 6.86774 5.94195 6.8232 6.1648L5.2536 5.8504C5.35091 5.36407 5.57561 4.9123 5.90474 4.54127C6.23387 4.17024 6.65561 3.89327 7.12687 3.73866C7.59813 3.58405 8.10199 3.55735 8.58695 3.66129C9.0719 3.76524 9.52056 3.99609 9.88706 4.33026C10.2535 4.66443 10.5247 5.08992 10.6729 5.56325C10.821 6.03658 10.8409 6.54076 10.7303 7.02425C10.6197 7.50774 10.3828 7.9532 10.0436 8.31509C9.70447 8.67698 9.27531 8.94233 8.8 9.084V9.084Z" fill="white"/>
</svg>
