<svg width="14" height="17" viewBox="0 0 14 17" fill="none" xmlns="http://www.w3.org/2000/svg">
<path d="M7 16.8995L2.05022 11.9497C1.07127 10.9708 0.404589 9.72349 0.1345 8.36563C-0.13559 7.00776 0.00303866 5.6003 0.532854 4.32122C1.06267 3.04215 1.95988 1.9489 3.11102 1.17974C4.26216 0.410571 5.61553 3.05176e-05 7 3.05176e-05C8.38447 3.05176e-05 9.73784 0.410571 10.889 1.17974C12.0401 1.9489 12.9373 3.04215 13.4671 4.32122C13.997 5.6003 14.1356 7.00776 13.8655 8.36563C13.5954 9.72349 12.9287 10.9708 11.9498 11.9497L7 16.8995ZM10.85 10.85C11.6114 10.0885 12.1298 9.11842 12.3399 8.06231C12.5499 7.00621 12.442 5.91154 12.03 4.91673C11.6179 3.92192 10.92 3.07165 10.0247 2.47343C9.12939 1.87521 8.07679 1.55592 7 1.55592C5.92321 1.55592 4.87061 1.87521 3.97529 2.47343C3.07997 3.07165 2.38214 3.92192 1.97004 4.91673C1.55795 5.91154 1.4501 7.00621 1.66013 8.06231C1.87016 9.11842 2.38864 10.0885 3.15 10.85L7 14.7L10.85 10.85ZM7 8.55552C6.58744 8.55552 6.19178 8.39163 5.90006 8.09991C5.60833 7.80819 5.44445 7.41253 5.44445 6.99997C5.44445 6.58741 5.60833 6.19175 5.90006 5.90002C6.19178 5.6083 6.58744 5.44441 7 5.44441C7.41256 5.44441 7.80822 5.6083 8.09994 5.90002C8.39167 6.19175 8.55555 6.58741 8.55555 6.99997C8.55555 7.41253 8.39167 7.80819 8.09994 8.09991C7.80822 8.39163 7.41256 8.55552 7 8.55552Z" fill="white"/>
</svg>
