<svg width="16" height="17" viewBox="0 0 16 17" fill="none" xmlns="http://www.w3.org/2000/svg">
<path d="M0.811787 12.4522C0.460901 11.8454 0.188143 11.1967 0 10.5215C0.409469 10.3132 0.753347 9.99577 0.993591 9.60421C1.23384 9.21265 1.36108 8.76226 1.36126 8.30287C1.36143 7.84349 1.23452 7.39301 0.994565 7.00127C0.754613 6.60953 0.410973 6.2918 0.00166017 6.08323C0.376872 4.72651 1.09129 3.48763 2.07761 2.48332C2.46283 2.73376 2.90983 2.87274 3.36915 2.88488C3.82846 2.89701 4.28218 2.78183 4.68008 2.55207C5.07799 2.32231 5.40457 1.98695 5.62368 1.58308C5.84279 1.17921 5.94589 0.7226 5.92156 0.263769C7.28459 -0.0884846 8.71486 -0.0879132 10.0776 0.265429C10.0535 0.72425 10.1568 1.1808 10.3761 1.58455C10.5954 1.9883 10.9221 2.32351 11.32 2.55309C11.718 2.78267 12.1718 2.89767 12.6311 2.88535C13.0904 2.87304 13.5373 2.73389 13.9224 2.48332C14.403 2.97304 14.8296 3.53001 15.1882 4.15171C15.5476 4.77342 15.8166 5.42169 16 6.0824C15.5905 6.29066 15.2467 6.60813 15.0064 6.99969C14.7662 7.39125 14.6389 7.84164 14.6387 8.30103C14.6386 8.76041 14.7655 9.21089 15.0054 9.60263C15.2454 9.99437 15.589 10.3121 15.9983 10.5207C15.6231 11.8774 14.9087 13.1163 13.9224 14.1206C13.5372 13.8701 13.0902 13.7312 12.6309 13.719C12.1715 13.7069 11.7178 13.8221 11.3199 14.0518C10.922 14.2816 10.5954 14.617 10.3763 15.0208C10.1572 15.4247 10.0541 15.8813 10.0784 16.3401C8.71541 16.6924 7.28514 16.6918 5.92239 16.3385C5.9465 15.8796 5.8432 15.4231 5.62392 15.0194C5.40464 14.6156 5.07794 14.2804 4.67995 14.0508C4.28197 13.8212 3.82823 13.7062 3.36894 13.7185C2.90965 13.7309 2.46272 13.87 2.07761 14.1206C1.58704 13.62 1.16173 13.0594 0.811787 12.4522ZM5.50986 12.6149C6.39438 13.125 7.05943 13.9438 7.37746 14.9141C7.79166 14.9531 8.20751 14.954 8.6217 14.9149C8.93995 13.9445 9.60531 13.1257 10.4901 12.6157C11.3743 12.1041 12.4163 11.9371 13.4161 12.1467C13.6568 11.8081 13.8643 11.447 14.0369 11.0693C13.3558 10.3085 12.9796 9.32308 12.9803 8.30195C12.9803 7.25609 13.3704 6.27912 14.0369 5.53457C13.8631 5.15702 13.6547 4.79635 13.4144 4.45717C12.4153 4.6666 11.374 4.4999 10.4901 3.98902C9.60562 3.47885 8.94057 2.6601 8.62254 1.68979C8.20834 1.65078 7.79249 1.64995 7.37829 1.68896C7.06005 2.65941 6.39469 3.47818 5.50986 3.98819C4.62568 4.49976 3.58371 4.66677 2.58394 4.45717C2.34369 4.79607 2.13582 5.15679 1.96306 5.53457C2.64418 6.29536 3.02045 7.28082 3.01971 8.30195C3.01971 9.34781 2.62959 10.3248 1.96306 11.0693C2.13693 11.4469 2.34533 11.8075 2.5856 12.1467C3.58474 11.9373 4.62603 12.104 5.50986 12.6149ZM8 10.7921C7.33957 10.7921 6.70619 10.5297 6.2392 10.0627C5.77221 9.59576 5.50986 8.96238 5.50986 8.30195C5.50986 7.64152 5.77221 7.00815 6.2392 6.54115C6.70619 6.07416 7.33957 5.81181 8 5.81181C8.66043 5.81181 9.2938 6.07416 9.7608 6.54115C10.2278 7.00815 10.4901 7.64152 10.4901 8.30195C10.4901 8.96238 10.2278 9.59576 9.7608 10.0627C9.2938 10.5297 8.66043 10.7921 8 10.7921ZM8 9.132C8.22014 9.132 8.43127 9.04455 8.58693 8.88888C8.7426 8.73322 8.83005 8.52209 8.83005 8.30195C8.83005 8.08181 8.7426 7.87068 8.58693 7.71502C8.43127 7.55935 8.22014 7.4719 8 7.4719C7.77986 7.4719 7.56873 7.55935 7.41307 7.71502C7.2574 7.87068 7.16995 8.08181 7.16995 8.30195C7.16995 8.52209 7.2574 8.73322 7.41307 8.88888C7.56873 9.04455 7.77986 9.132 8 9.132Z" fill="white"/>
</svg>
