<svg width="16" height="16" viewBox="0 0 16 16" fill="none" xmlns="http://www.w3.org/2000/svg">
<path d="M3.412 1.4456L4.3296 2.7568C3.21455 3.53741 2.37741 4.6532 1.93979 5.94208C1.50218 7.23095 1.48688 8.62578 1.89612 9.92395C2.30537 11.2221 3.11783 12.356 4.2155 13.1609C5.31317 13.9658 6.63886 14.3997 8 14.3997C9.36114 14.3997 10.6868 13.9658 11.7845 13.1609C12.8822 12.356 13.6946 11.2221 14.1039 9.92395C14.5131 8.62578 14.4978 7.23095 14.0602 5.94208C13.6226 4.6532 12.7855 3.53741 11.6704 2.7568L12.588 1.4456C13.6424 2.18274 14.5031 3.16356 15.0972 4.30469C15.6912 5.44582 16.0009 6.71351 16 8C16 12.4184 12.4184 16 8 16C3.5816 16 2.07219e-06 12.4184 2.07219e-06 8C-0.000924344 6.71351 0.308793 5.44582 0.902826 4.30469C1.49686 3.16356 2.35764 2.18274 3.412 1.4456V1.4456ZM7.2 8V0H8.8V8H7.2Z" fill="white"/>
</svg>
