<svg width="30" height="30" viewBox="0 0 30 30" fill="none" xmlns="http://www.w3.org/2000/svg">
<path d="M12.294 0.203421C11.4999 0.312901 9.80233 0.915039 8.51544 1.54455C5.31191 3.07726 3.14884 5.23948 1.58814 8.46913C-0.547547 12.8757 -0.520166 17.5286 1.61552 21.8256C2.82027 24.1794 5.77738 27.1354 8.13211 28.3397C14.0737 31.323 20.8093 30.2282 25.5188 25.5206C26.7509 24.3163 27.764 22.9478 28.339 21.8256C31.3235 15.8864 30.2283 9.15338 25.5188 4.44576C21.9046 0.83293 17.551 -0.562935 12.294 0.203421ZM18.2082 1.70877C23.1915 2.88567 27.0795 6.74483 28.2569 11.7261C30.5842 21.5793 22.2058 30.2829 12.2118 28.3944C7.20117 27.4365 2.4917 22.7836 1.58814 17.8844C1.15005 15.5579 1.20481 15.5032 2.10837 17.0906C2.98455 18.596 4.54525 20.0192 6.48927 21.0319C7.52974 21.5793 8.13211 21.6888 10.3226 21.6888C12.6499 21.6888 13.088 21.6067 14.4844 20.8951C16.4832 19.8824 18.0713 18.2949 19.0296 16.379C19.6867 15.0379 19.7689 14.5179 19.7689 12.2462C19.7689 9.83762 19.6867 9.48182 18.8653 7.78488C17.4415 4.88367 15.1416 3.26885 11.4178 2.52986C10.4321 2.33827 9.77495 2.14668 9.91185 2.11932C10.0761 2.11932 10.8154 1.92772 11.5547 1.70877C13.3618 1.21611 16.0725 1.21611 18.2082 1.70877ZM13.7451 4.55523C15.7165 5.48581 17.1951 6.99116 17.9618 8.7702C18.8927 10.9598 18.7284 11.3156 17.3594 9.97447C14.5666 7.18274 10.1309 7.78488 8.26902 11.2061C6.35237 14.7368 8.37854 19.1708 12.2392 19.855L13.4713 20.074L12.513 20.3203C7.42022 21.5519 2.54646 17.9938 2.16314 12.8209C1.80719 7.73014 5.47619 3.78888 10.5964 3.76151C11.719 3.76151 12.5404 3.98047 13.7451 4.55523ZM15.7439 10.2482C17.0308 11.2061 17.7153 12.4651 17.7153 13.9431C17.7153 18.4865 12.3761 20.375 9.63805 16.7896C8.04997 14.6821 8.70711 11.4251 11.0071 10.1113C12.3761 9.34496 14.5939 9.39971 15.7439 10.2482Z" fill="#9900CC"/>
</svg>
