<svg width="18" height="14" viewBox="0 0 18 14" fill="none" xmlns="http://www.w3.org/2000/svg">
<path d="M17.3337 4.17325V10.9583C17.3337 11.65 17.069 12.3156 16.5939 12.8184C16.1188 13.3213 15.4693 13.6233 14.7787 13.6624L14.6253 13.6666H3.37533C2.68354 13.6666 2.01797 13.402 1.51513 12.9269C1.0123 12.4518 0.710324 11.8023 0.671159 11.1116L0.666992 10.9583V4.17325L8.71033 8.38658C8.79981 8.43345 8.89931 8.45794 9.00033 8.45794C9.10134 8.45794 9.20085 8.43345 9.29033 8.38658L17.3337 4.17325ZM3.37533 0.333252H14.6253C15.2966 0.333171 15.9441 0.582415 16.442 1.03264C16.94 1.48287 17.253 2.10199 17.3203 2.76992L9.00033 7.12825L0.680326 2.76992C0.744928 2.12851 1.0362 1.53118 1.50178 1.0853C1.96737 0.639426 2.57673 0.374241 3.22033 0.337419L3.37533 0.333252H14.6253H3.37533Z" fill="#333333"/>
</svg>
