<svg width="14" height="17" viewBox="0 0 14 17" fill="none" xmlns="http://www.w3.org/2000/svg">
<path d="M11.9412 6.0708C11.9412 4.86324 11.4206 3.70514 10.4939 2.85127C9.56729 1.9974 8.31048 1.5177 7 1.5177C5.68952 1.5177 4.43271 1.9974 3.50606 2.85127C2.57941 3.70514 2.05882 4.86324 2.05882 6.0708V12.1416H11.9412V6.0708ZM13.5882 12.6478L13.9176 13.0522C13.9635 13.1086 13.9915 13.1756 13.9983 13.2458C14.0052 13.316 13.9907 13.3865 13.9565 13.4496C13.9223 13.5126 13.8698 13.5656 13.8047 13.6026C13.7397 13.6397 13.6647 13.6593 13.5882 13.6593H0.411765C0.335295 13.6593 0.260336 13.6397 0.195287 13.6026C0.130238 13.5656 0.0776696 13.5126 0.0434713 13.4496C0.00927304 13.3865 -0.00520339 13.316 0.00166401 13.2458C0.00853141 13.1756 0.0364713 13.1086 0.082353 13.0522L0.411765 12.6478V6.0708C0.411765 4.46072 1.10588 2.91659 2.34141 1.7781C3.57695 0.6396 5.25269 0 7 0C8.74731 0 10.4231 0.6396 11.6586 1.7781C12.8941 2.91659 13.5882 4.46072 13.5882 6.0708V12.6478ZM4.94118 14.4181H9.05882C9.05882 14.9213 8.84191 15.4038 8.45581 15.7596C8.0697 16.1154 7.54603 16.3153 7 16.3153C6.45397 16.3153 5.9303 16.1154 5.54419 15.7596C5.15809 15.4038 4.94118 14.9213 4.94118 14.4181V14.4181Z" fill="white"/>
</svg>
