<svg width="20" height="20" viewBox="0 0 20 20" fill="none" xmlns="http://www.w3.org/2000/svg">
<g clip-path="url(#clip0_2061_169)">
<path d="M19.7221 16.6309L16.9023 19.4281C16.4861 19.855 15.9344 19.9996 15.3971 20.0002C13.0209 19.9291 10.7748 18.7618 8.9307 17.5633C5.90367 15.3612 3.12624 12.6306 1.38307 9.33077C0.714503 7.94706 -0.0699637 6.18154 0.00498633 4.63706C0.0116697 4.05606 0.168236 3.48584 0.57742 3.11134L3.39719 0.292992C3.98272 -0.205058 4.54897 -0.0328582 4.92367 0.547275L7.19219 4.84897C7.43095 5.35859 7.29399 5.90462 6.93775 6.26877L5.89889 7.30711C5.83475 7.39496 5.79392 7.49496 5.79289 7.60379C6.19125 9.14582 7.3981 10.5671 8.46424 11.5452C9.53035 12.5234 10.6763 13.8485 12.1639 14.1622C12.3477 14.2135 12.5729 14.2315 12.7045 14.1093L13.913 12.8802C14.3296 12.5645 14.9311 12.4101 15.3758 12.6683H15.397L19.4889 15.084C20.0896 15.4606 20.1522 16.1882 19.7221 16.6309Z" fill="#3E4044"/>
</g>
<defs>
<clipPath id="clip0_2061_169">
<rect width="20" height="20" fill="white"/>
</clipPath>
</defs>
</svg>
