<svg width="12" height="16" viewBox="0 0 12 16" fill="none" xmlns="http://www.w3.org/2000/svg">
<path d="M12 15.75H10.5V14.25C10.5 13.6533 10.2629 13.081 9.84099 12.659C9.41903 12.2371 8.84674 12 8.25 12H3.75C3.15326 12 2.58097 12.2371 2.15901 12.659C1.73705 13.081 1.5 13.6533 1.5 14.25V15.75H0V14.25C0 13.2554 0.395088 12.3016 1.09835 11.5983C1.80161 10.8951 2.75544 10.5 3.75 10.5H8.25C9.24456 10.5 10.1984 10.8951 10.9017 11.5983C11.6049 12.3016 12 13.2554 12 14.25V15.75ZM6 9C5.40905 9 4.82389 8.8836 4.27792 8.65746C3.73196 8.43131 3.23588 8.09984 2.81802 7.68198C2.40016 7.26412 2.06869 6.76804 1.84254 6.22208C1.6164 5.67611 1.5 5.09095 1.5 4.5C1.5 3.90905 1.6164 3.32389 1.84254 2.77792C2.06869 2.23196 2.40016 1.73588 2.81802 1.31802C3.23588 0.900156 3.73196 0.568688 4.27792 0.342542C4.82389 0.116396 5.40905 -8.80582e-09 6 0C7.19347 1.77842e-08 8.33807 0.474106 9.18198 1.31802C10.0259 2.16193 10.5 3.30653 10.5 4.5C10.5 5.69347 10.0259 6.83807 9.18198 7.68198C8.33807 8.52589 7.19347 9 6 9ZM6 7.5C6.79565 7.5 7.55871 7.18393 8.12132 6.62132C8.68393 6.05871 9 5.29565 9 4.5C9 3.70435 8.68393 2.94129 8.12132 2.37868C7.55871 1.81607 6.79565 1.5 6 1.5C5.20435 1.5 4.44129 1.81607 3.87868 2.37868C3.31607 2.94129 3 3.70435 3 4.5C3 5.29565 3.31607 6.05871 3.87868 6.62132C4.44129 7.18393 5.20435 7.5 6 7.5Z" fill="white"/>
</svg>
