<svg width="16" height="16" viewBox="0 0 16 16" fill="none" xmlns="http://www.w3.org/2000/svg">
<path d="M4.23281 15.0592L9.02919e-06 16L0.940809 11.7672C0.321234 10.6083 -0.00196948 9.31411 9.02919e-06 8C9.02919e-06 3.5816 3.58161 0 8 0C12.4184 0 16 3.5816 16 8C16 12.4184 12.4184 16 8 16C6.68589 16.002 5.3917 15.6788 4.23281 15.0592V15.0592ZM4.46481 13.3688L4.98721 13.6488C5.91405 14.1441 6.94912 14.4022 8 14.4C9.2658 14.4 10.5032 14.0246 11.5557 13.3214C12.6081 12.6182 13.4284 11.6186 13.9128 10.4492C14.3972 9.27972 14.524 7.9929 14.277 6.75142C14.0301 5.50994 13.4205 4.36957 12.5255 3.47451C11.6304 2.57946 10.4901 1.96992 9.24858 1.72297C8.0071 1.47603 6.72028 1.60277 5.55083 2.08717C4.38139 2.57157 3.38184 3.39187 2.6786 4.44435C1.97536 5.49682 1.60001 6.7342 1.60001 8C1.60001 9.06719 1.86001 10.0944 2.35201 11.0128L2.63121 11.5352L2.10721 13.8928L4.46481 13.3688V13.3688Z" fill="white"/>
</svg>
