<svg width="38" height="35" viewBox="0 0 38 35" fill="none" xmlns="http://www.w3.org/2000/svg">
<path d="M37.25 11.875H33.4437C31.0625 5.14375 24.7062 0.625 17.5625 0.625C13.087 0.625 8.79475 2.4029 5.63007 5.56757C2.4654 8.73225 0.6875 13.0245 0.6875 17.5C0.6875 26.875 8.24375 34.375 17.5625 34.375C24.7062 34.375 31.0625 29.875 33.5 23.125H37.25V11.875ZM33.5 15.625V19.375H29.75V15.625H33.5ZM29.4125 23.125C27.2375 27.7 22.625 30.625 17.5625 30.625C10.325 30.625 4.4375 24.7563 4.4375 17.5C4.4375 10.2625 10.325 4.375 17.5625 4.375C22.625 4.375 27.2375 7.31875 29.3937 11.875H26V23.125" fill="black" fill-opacity="0.4"/>
</svg>
