<svg width="24" height="24" viewBox="0 0 24 24" fill="none" xmlns="http://www.w3.org/2000/svg">
<g clip-path="url(#clip0_2061_189)">
<g filter="url(#filter0_f_2061_189)">
<path d="M0.589844 23.4396L2.19812 17.5943C1.20925 15.8838 0.682187 13.9408 0.687625 11.9545C0.687625 5.73022 5.77337 0.669678 12.022 0.669678C15.0539 0.669678 17.9011 1.84418 20.0365 3.97663C22.1773 6.10909 23.3564 8.9452 23.3509 11.96C23.3509 18.1842 18.2651 23.2448 12.0166 23.2448H12.0111C10.1148 23.2448 8.25109 22.7685 6.59387 21.87L0.589844 23.4396ZM6.87644 19.8241L7.21872 20.0298C8.66406 20.885 10.3213 21.3341 12.0111 21.3396H12.0166C17.2056 21.3396 21.4328 17.1341 21.4328 11.96C21.4328 9.45396 20.4548 7.09962 18.6781 5.32428C16.9013 3.54902 14.5322 2.57483 12.0166 2.57483C6.82206 2.57483 2.59478 6.78025 2.59478 11.9544C2.59478 13.7244 3.08922 15.4509 4.03469 16.9448L4.25744 17.302L3.30662 20.7605L6.87644 19.8241Z" fill="black" fill-opacity="0.24"/>
</g>
<path d="M1.10449 22.8365L2.63918 17.2614C1.69285 15.6262 1.19503 13.7717 1.19571 11.8842C1.19571 5.95098 6.04671 1.12427 11.9976 1.12427C14.89 1.12427 17.5999 2.24676 19.639 4.27789C21.678 6.30911 22.7996 9.01382 22.7996 11.8895C22.7996 17.8227 17.9486 22.6494 11.9977 22.6494H11.9923C10.1839 22.6494 8.40771 22.1951 6.83009 21.3398L1.10449 22.8366V22.8365Z" fill="url(#paint0_linear_2061_189)"/>
<path d="M0.712891 23.4873L2.3012 17.7145C1.32461 16.0254 0.804016 14.1064 0.809453 12.1448C0.809453 5.99779 5.83211 1 12.0032 1C14.9974 1 17.8091 2.15984 19.9181 4.26587C22.0323 6.37189 23.1968 9.17279 23.1914 12.1501C23.1914 18.2971 18.1688 23.2949 11.9977 23.2949H11.9924C10.1233 23.2942 8.28403 22.8274 6.64239 21.9372L0.712891 23.4873V23.4873ZM6.92139 19.9167L7.25945 20.1198C8.68689 20.9644 10.3235 21.408 11.9924 21.4134H11.9978C17.1223 21.4134 21.2972 17.2601 21.2972 12.1501C21.2972 9.6753 20.3313 7.3501 18.5766 5.59689C16.8219 3.84367 14.4822 2.88153 11.9978 2.88153C6.86776 2.88153 2.69298 7.03474 2.69298 12.1448C2.69298 13.8927 3.18123 15.5978 4.11498 17.073L4.33501 17.4258L3.39592 20.8414L6.92139 19.9167V19.9167Z" fill="white"/>
<path d="M9.20246 7.21789C8.99312 6.75283 8.77309 6.74209 8.57462 6.73677C8.41365 6.73145 8.22587 6.73145 8.03799 6.73145C7.85021 6.73145 7.54965 6.80092 7.29212 7.07884C7.03449 7.35685 6.31543 8.03034 6.31543 9.40413C6.31543 10.7724 7.31893 12.098 7.45843 12.2851C7.59793 12.4722 9.39559 15.3746 12.2342 16.4918C14.5953 17.4219 15.0783 17.2348 15.5881 17.1867C16.1032 17.1386 17.2409 16.5132 17.4769 15.8611C17.7077 15.209 17.7077 14.653 17.6379 14.5355C17.5682 14.4178 17.3804 14.3484 17.1013 14.2094C16.8223 14.0704 15.4486 13.3969 15.191 13.3007C14.9334 13.2045 14.7456 13.1618 14.5632 13.4397C14.3753 13.7176 13.8388 14.343 13.6777 14.5301C13.5167 14.7172 13.3504 14.7386 13.0713 14.5996C12.7923 14.4607 11.8908 14.1666 10.823 13.2152C9.99127 12.4775 9.42784 11.5635 9.26677 11.2856C9.1058 11.0076 9.25074 10.8579 9.39024 10.719C9.51362 10.596 9.66924 10.3929 9.80884 10.2326C9.94834 10.0722 9.99662 9.95464 10.0878 9.76749C10.1791 9.58044 10.1361 9.4201 10.0664 9.28114C9.99662 9.14209 9.44931 7.76839 9.20246 7.21789Z" fill="white"/>
</g>
<defs>
<filter id="filter0_f_2061_189" x="-5.41016" y="-5.33032" width="34.7607" height="34.77" filterUnits="userSpaceOnUse" color-interpolation-filters="sRGB">
<feFlood flood-opacity="0" result="BackgroundImageFix"/>
<feBlend mode="normal" in="SourceGraphic" in2="BackgroundImageFix" result="shape"/>
<feGaussianBlur stdDeviation="3" result="effect1_foregroundBlur_2061_189"/>
</filter>
<linearGradient id="paint0_linear_2061_189" x1="11.9516" y1="22.8351" x2="11.9516" y2="1.12296" gradientUnits="userSpaceOnUse">
<stop stop-color="#20B038"/>
<stop offset="1" stop-color="#60D66A"/>
</linearGradient>
<clipPath id="clip0_2061_189">
<rect width="24" height="24" fill="white"/>
</clipPath>
</defs>
</svg>
